# Blender v2.79 (sub 0) OBJ File: 'boat.blend'
# www.blender.org
mtllib Boat.mtl
o Front_Cube.005
v -0.560501 0.048789 1.000000
v -0.560501 0.048789 -1.000000
v -0.560501 0.490006 1.302022
v -0.560501 0.490006 -1.000000
v -0.560501 0.048789 -0.000000
v -0.560501 0.490006 0.151011
v -0.448031 0.195423 -1.415258
v -0.433572 0.490006 -1.456358
v -0.560501 0.048789 0.789201
v -0.560501 0.490006 1.059390
v -0.560501 0.048789 -0.796709
v -0.560501 0.490006 -0.766009
vt 0.719758 0.590868
vt 0.861128 0.582224
vt 0.861125 0.648101
vt 0.719755 0.648101
vt 0.861154 0.778483
vt 0.766763 0.766696
vt 0.719778 0.144378
vt 0.861151 0.068309
vt 0.861139 0.324050
vt 0.719768 0.366566
vt 0.719780 0.085031
vt 0.861154 0.000000
vn -1.0000 -0.0000 0.0000
vn -0.9645 0.0042 -0.2642
usemtl Material
s off
f 11/1/1 12/2/1 4/3/1 2/4/1
f 8/5/2 7/6/2 2/4/2 4/3/2
f 9/7/1 10/8/1 6/9/1 5/10/1
f 1/11/1 3/12/1 10/8/1 9/7/1
f 5/10/1 6/9/1 12/2/1 11/1/1
o Right_Cube.004
v 0.564499 0.048789 1.000000
v -0.560501 0.048789 1.000000
v 0.564499 0.482138 1.302023
v -0.560501 0.490006 1.302022
v 0.001999 0.048789 1.000000
v 0.001999 0.490006 1.302022
v -0.448031 0.048789 1.000000
v -0.448032 0.490006 1.302022
v 0.461051 0.048789 1.000000
v 0.461050 0.482138 1.302022
vt 0.530614 0.714533
vt 0.359296 0.714532
vt 0.359296 0.682823
vt 0.530614 0.682824
vt 0.530613 0.970834
vt 0.361372 0.970834
vt 0.359296 0.841411
vt 0.530613 0.841411
vt 0.530613 0.999999
vt 0.361372 1.000000
vn 0.0000 -0.5649 0.8252
vn -0.0049 -0.5683 0.8228
vn -0.0000 -0.5718 0.8204
usemtl Material
s off
f 19/13/3 20/14/3 16/15/3 14/16/3
f 21/17/4 22/18/4 18/19/4 17/20/4
f 17/20/3 18/19/3 20/14/3 19/13/3
f 13/21/5 15/22/5 22/18/5 21/17/5
o Left_Cube.003
v 0.001999 0.236696 -1.415258
v 0.074315 0.728737 -1.620816
v -0.448031 0.195423 -1.415258
v -0.433572 0.490006 -1.456358
v 0.461051 0.195423 -1.415258
v 0.474350 0.482138 -1.453061
vt 0.622081 0.682823
vt 0.713367 0.686601
vt 0.700747 0.816016
vt 0.530614 0.795655
vt 0.713367 0.942901
vt 0.619359 0.938797
vn 0.0828 -0.3055 -0.9486
vn -0.0789 -0.2903 -0.9537
usemtl Material
s off
f 28/23/6 27/24/6 23/25/6 24/26/6
f 24/26/7 23/25/7 25/27/7 26/28/7
o Top_Cube.002
v 0.564499 0.482138 -1.000000
v 0.564499 0.482138 1.302023
v -0.560501 0.490006 1.302022
v -0.560501 0.490006 -1.000000
v 0.564499 0.482138 0.151011
v -0.560501 0.490006 0.151011
v 0.074315 0.728737 -1.620816
v 0.001999 0.490006 1.302022
v -0.073170 0.073902 0.151011
v -0.433572 0.490006 -1.456358
v -0.448032 0.490006 1.302022
v -0.461929 0.490006 0.151011
v 0.447751 0.482138 0.151011
v 0.474350 0.482138 -1.453061
v 0.461050 0.482138 1.302022
v 0.564499 0.482138 1.059391
v -0.560501 0.490006 1.059390
v -0.013245 0.490006 1.059390
v -0.451080 0.490006 1.059390
v 0.458247 0.482138 1.059391
v -0.560501 0.490006 -0.766009
v 0.564499 0.482138 -0.766008
v 0.046198 0.327787 -0.929779
v -0.438446 0.490006 -0.798754
v 0.468943 0.482138 -0.796127
vt 0.324331 0.755008
vt 0.359296 0.755032
vt 0.359296 0.823434
vt 0.323358 0.823410
vt 0.320295 0.231161
vt 0.359296 0.240419
vt 0.359296 0.498943
vt 0.327798 0.498922
vt 0.030534 0.231680
vt 0.169258 0.193637
vt 0.213390 0.497607
vt 0.037306 0.498700
vt 0.033952 0.754787
vt 0.184426 0.754913
vt 0.179555 0.823312
vt 0.033056 0.823188
vt 0.000000 0.754764
vt 0.000000 0.823166
vt 0.000000 0.240150
vt 0.000000 0.498675
vt 0.000000 0.174184
vt 0.028806 0.046477
vt 0.150816 0.000000
vt 0.318737 0.045769
vt 0.359296 0.174452
vn 0.0000 1.0000 -0.0000
vn -0.5182 0.8523 0.0708
vn 0.0169 0.9999 -0.0006
vn 0.5612 0.8155 0.1414
vn 0.4389 0.8720 -0.2168
vn -0.3670 0.9097 -0.1941
vn 0.0110 0.9584 0.2852
vn 0.0030 0.9585 0.2852
usemtl Material
s off
f 47/29/8 45/30/8 31/31/8 39/32/8
f 52/33/8 49/34/8 34/35/8 40/36/8
f 53/37/9 51/38/9 37/39/9 41/40/9
f 48/41/10 46/42/10 36/43/10 43/44/10
f 51/38/11 52/33/11 40/36/11 37/39/11
f 46/42/8 47/29/8 39/32/8 36/43/8
f 44/45/8 48/41/8 43/44/8 30/46/8
f 50/47/8 53/37/8 41/40/8 33/48/8
f 33/48/8 41/40/8 48/41/8 44/45/8
f 37/39/12 40/36/12 47/29/12 46/42/12
f 41/40/13 37/39/13 46/42/13 48/41/13
f 40/36/8 34/35/8 45/30/8 47/29/8
f 29/49/8 42/50/8 53/37/8 50/47/8
f 35/51/14 38/52/14 52/33/14 51/38/14
f 42/50/15 35/51/15 51/38/15 53/37/15
f 38/52/8 32/53/8 49/34/8 52/33/8
o Bottom_Cube.001
v 0.564499 0.048789 -1.000000
v 0.564499 0.048789 1.000000
v -0.560501 0.048789 1.000000
v -0.560501 0.048789 -1.000000
v 0.564499 0.048789 0.000000
v -0.560501 0.048789 -0.000000
v 0.001999 0.236696 -1.415258
v 0.001999 0.048789 1.000000
v 0.001999 0.048789 -0.000000
v -0.448031 0.195423 -1.415258
v -0.448031 0.048789 1.000000
v -0.448031 0.048789 -0.000000
v 0.461051 0.195423 -1.415258
v 0.461051 0.048789 1.000000
v 0.461051 0.048789 -0.000000
v 0.564499 0.048789 0.789201
v -0.560501 0.048789 0.789201
v 0.001999 0.048789 0.789201
v -0.448031 0.048789 0.789201
v 0.461051 0.048789 0.789201
v -0.560501 0.048789 -0.796709
v 0.564499 0.048789 -0.796708
v 0.001999 0.048789 -0.796708
v -0.448031 0.048789 -0.796709
v 0.461051 0.048789 -0.796708
vt 0.395332 0.623476
vt 0.395332 0.682821
vt 0.359296 0.682823
vt 0.359296 0.623479
vt 0.395332 0.177008
vt 0.395332 0.401299
vt 0.359296 0.401301
vt 0.359296 0.177011
vt 0.686610 0.176988
vt 0.686610 0.401279
vt 0.539526 0.401289
vt 0.539526 0.176998
vt 0.686609 0.623456
vt 0.686609 0.682801
vt 0.539526 0.682811
vt 0.539526 0.623466
vt 0.719755 0.623454
vt 0.719755 0.682799
vt 0.719755 0.176986
vt 0.719755 0.401277
vt 0.719755 0.119755
vt 0.686542 0.000619
vt 0.539439 0.000000
vt 0.395265 0.000639
vt 0.359296 0.119780
vn 0.0000 -1.0000 0.0000
vn -0.3263 -0.9306 -0.1660
vn 0.0442 -0.9644 -0.2608
vn -0.0434 -0.9644 -0.2608
vn 0.3026 -0.9383 -0.1674
usemtl Material
s off
f 72/54/16 64/55/16 56/56/16 70/57/16
f 77/58/16 65/59/16 59/60/16 74/61/16
f 78/62/16 68/63/16 62/64/16 76/65/16
f 73/66/16 67/67/16 61/68/16 71/69/16
f 76/65/16 62/64/16 65/59/16 77/58/16
f 71/69/16 61/68/16 64/55/16 72/54/16
f 69/70/16 55/71/16 67/67/16 73/66/16
f 75/72/16 58/73/16 68/63/16 78/62/16
f 58/73/16 69/70/16 73/66/16 68/63/16
f 62/64/16 71/69/16 72/54/16 65/59/16
f 68/63/16 73/66/16 71/69/16 62/64/16
f 65/59/16 72/54/16 70/57/16 59/60/16
f 54/74/17 75/72/17 78/62/17 66/75/17
f 60/76/18 76/65/18 77/58/18 63/77/18
f 66/75/19 78/62/19 76/65/19 60/76/19
f 63/77/20 77/58/20 74/61/20 57/78/20
o Back_Cube
v 0.564499 0.048789 -1.000000
v 0.564499 0.048789 1.000000
v 0.564499 0.482138 -1.000000
v 0.564499 0.482138 1.302023
v 0.564499 0.048789 0.000000
v 0.564499 0.482138 0.151011
v 0.461051 0.195423 -1.415258
v 0.474350 0.482138 -1.453061
v 0.564499 0.048789 0.789201
v 0.564499 0.482138 1.059391
v 0.564499 0.048789 -0.796708
v 0.564499 0.482138 -0.766008
vt 0.861154 0.632706
vt 1.000000 0.708773
vt 1.000000 0.777111
vt 0.861154 0.692078
vt 0.861154 0.186031
vt 1.000000 0.194645
vt 1.000000 0.452926
vt 0.861154 0.410426
vt 1.000000 0.128741
vt 0.861154 0.128773
vt 0.907938 0.010502
vt 0.999828 0.000000
vn 1.0000 0.0000 0.0000
vn 0.9745 -0.0297 -0.2223
usemtl Material
s off
f 87/79/21 88/80/21 82/81/21 80/82/21
f 89/83/21 90/84/21 84/85/21 83/86/21
f 81/87/22 79/88/22 85/89/22 86/90/22
f 83/86/21 84/85/21 88/80/21 87/79/21
f 79/88/21 81/87/21 90/84/21 89/83/21
